<svg xmlns="http://www.w3.org/2000/svg" width="262" viewBox="0 0 262 88">
  <g id="Logo" transform="translate(20.637 5.741)">
    <g id="Rectangle_88" data-name="Rectangle 88" transform="translate(-20.637 -5.741)" fill="#fff" stroke="#707070" stroke-width="1">
      <rect width="262" height="88" rx="20" stroke="none"/>
      <rect x="0.5" y="0.5" width="261" height="87" rx="19.5" fill="none"/>
    </g>
    <g id="_728408-9c27b0" data-name="728408-9c27b0" transform="translate(158.391 9.196)">
      <path id="Path_16" data-name="Path 16" d="M245.695-859.491a32.341,32.341,0,0,0-10.17,2.329,40.585,40.585,0,0,0-3.946,2.012,30.144,30.144,0,0,0-8.718,8.193,29.2,29.2,0,0,0-4.9,12.146A37.406,37.406,0,0,0,218-822.7a26.564,26.564,0,0,0,5.4,12.182,29.479,29.479,0,0,0,5.2,4.93,28.919,28.919,0,0,0,15.129,5.167c1.3.093,4.657.093,6.238,0a38.388,38.388,0,0,0,10.924-2.113,3.391,3.391,0,0,0,1.15-.6,2.292,2.292,0,0,1,.539-.374l.23-.093v-2.228c0-2.091-.007-2.228-.122-2.192-.158.043-1.2.424-2.321.841a36.1,36.1,0,0,1-13.224,1.991,28.2,28.2,0,0,1-6.784-.819,23.283,23.283,0,0,1-6.655-2.81,24.568,24.568,0,0,1-4.909-4.341,23.385,23.385,0,0,1-5.2-12.6,49.423,49.423,0,0,1,0-7.439,25.525,25.525,0,0,1,4.269-11.715,25.008,25.008,0,0,1,5.7-5.908,22.128,22.128,0,0,1,6.181-2.99,27,27,0,0,1,8.883-.963,26.86,26.86,0,0,1,7.5,1.3,19.244,19.244,0,0,1,8.128,5.016,20.6,20.6,0,0,1,5.785,12.24,42.742,42.742,0,0,1,.108,5.872c-.345,4.283-1.725,7.906-3.859,10.155a5.338,5.338,0,0,1-3.974,1.869,3.653,3.653,0,0,1-3.148-1.631,5.069,5.069,0,0,0-1.286-1c-.129-.079-.122-.093.072-.165a2.378,2.378,0,0,0,.482-.316,4.114,4.114,0,0,1,.5-.374.709.709,0,0,0,.287-.323q.075-.27.388-4.636c.065-.834.144-1.869.18-2.3s.122-1.43.172-2.221a8.987,8.987,0,0,1,.18-1.5,3.682,3.682,0,0,0,.086-1.057c0-.532.043-1.538.1-2.228s.165-2.228.252-3.414.18-2.271.223-2.415l.065-.259,1.847-.374c2.408-.482,2.868-.6,3.1-.791.108-.086.359-.266.553-.4.482-.323.546-.41.553-.747a.763.763,0,0,0-.834-.8c-.259,0-3.1.561-4.9.97-.137.029-.165-.007-.2-.28a.848.848,0,0,0-.525-.7.887.887,0,0,0-.819.1,2.464,2.464,0,0,1-.51.216,1.238,1.238,0,0,0-.7.618c-.108.266,0,.237-2.408.546-1.064.137-3.716.474-5.893.747-9.012,1.15-12.6,1.6-15.6,1.984-5.326.668-5.3.661-5.369.776a.432.432,0,0,1-.273.158,1.107,1.107,0,0,0-.4.187c-.237.194-.237.424.036,1.883.244,1.265,1.373,7.338,1.948,10.428.2,1.064.388,1.991.424,2.048a1.076,1.076,0,0,0,.216.259c.158.144.295.144,12.814.165,14.324.021,12.915-.05,12.915.625,0,.208-.022.575-.043.812l-.05.446-12.369.014L232-823.24l-.287.158c-.158.086-.438.223-.632.309a.837.837,0,0,0-.553.848.846.846,0,0,0,.546.776c.2.086,2.1.1,11.434.108,6.159.007,11.276.029,11.377.057.295.079.208.23-.309.546a4.086,4.086,0,0,0-1.926,2.53,3.728,3.728,0,0,0,.517,2.659,4.078,4.078,0,0,0,4.794,1.488l.6-.2.776.158a12.5,12.5,0,0,0,6.576-.381,16.125,16.125,0,0,0,4.492-2.666,18.879,18.879,0,0,0,5.124-7.288,28.317,28.317,0,0,0,1.056-15.236,23.914,23.914,0,0,0-10.529-15.416,28.425,28.425,0,0,0-13.332-4.6A53.352,53.352,0,0,0,245.695-859.491Zm12.347,17.8c.072.094.086.266.05.7-.022.316-.1,1.4-.18,2.408-.295,4.039-.3,4.1-.446,4.176a14.168,14.168,0,0,1-1.833.05l-1.711-.022-.014-.359c-.108-2.99-.172-6.526-.122-6.576a16.688,16.688,0,0,1,1.861-.287c.985-.122,1.811-.237,1.833-.259C257.553-841.934,257.949-841.819,258.042-841.689Zm-7.065.877c.115.129.137.367.187,2.135.029,1.1.079,2.508.108,3.126l.05,1.128-.172.043c-.093.022-1.624.029-3.407.022l-3.234-.022-.05-.791c-.022-.438-.079-1.193-.122-1.689a25.01,25.01,0,0,1-.115-3.306c.115,0,4.672-.582,5.318-.676C250.51-840.992,250.826-840.985,250.977-840.812Zm-9.638,1.172c.144.108.151.137.367,3.069.137,1.9.137,2.127-.007,2.185-.065.021-1.107.043-2.329.043-2.048,0-2.221-.007-2.25-.129a7.8,7.8,0,0,1-.086-.8c-.022-.374-.086-1.171-.144-1.761a9.857,9.857,0,0,1-.122-2.1c.043-.072,3.558-.561,4.19-.589A.807.807,0,0,1,241.34-839.641Zm-7.4.977c.151.165.208.575.374,2.659.1,1.294.1,1.545.022,1.6a6.84,6.84,0,0,1-1.229.065c-1.114,0-1.136,0-1.164-.165-.022-.086-.122-.611-.223-1.164s-.252-1.322-.331-1.7a8.446,8.446,0,0,1-.137-.906v-.208l.992-.144C233.549-838.829,233.786-838.836,233.937-838.664Zm.539,6.684c.165.165.194.309.295,1.445.237,2.7.252,3.026.144,3.09a6.809,6.809,0,0,1-1.653.036c0-.022-.05-.273-.108-.561-.108-.539-.288-1.524-.575-3.1a6.991,6.991,0,0,1-.137-.984,4.142,4.142,0,0,1,.97-.057C234.232-832.116,234.354-832.1,234.476-831.98Zm7.266-.065c.28.151.28.137.532,4.147.022.4.014.446-.129.482-.079.021-1.114.043-2.285.043h-2.135l-.036-.237c-.022-.122-.05-.474-.072-.769s-.086-1.071-.151-1.725-.108-1.373-.108-1.6v-.41h2.127A17.272,17.272,0,0,1,241.742-832.044Zm9.444.094c.151.158.165.244.216,1.315a11.983,11.983,0,0,1-.036,3.2c-.057.036-1.509.065-3.234.065H245l-.05-.561c-.05-.632-.165-2.264-.237-3.414l-.043-.769h6.353Zm5.994-.05c.2.137.2.46.022,2.817a5.267,5.267,0,0,1-.23,1.746,8.872,8.872,0,0,1-1.466.043l-1.366-.014-.057-2.257c-.029-1.243-.043-2.3-.022-2.357A10.573,10.573,0,0,1,257.18-832Z" transform="translate(-217.485 859.537)" fill="#004f94"/>
      <path id="Path_17" data-name="Path 17" d="M441.231-303.771a4.116,4.116,0,0,0-2.523,1.883,2.049,2.049,0,0,0-.208,1.186,1.866,1.866,0,0,0,.223,1.186,3.206,3.206,0,0,0,1.466,1.394,2.069,2.069,0,0,0,1.294.252,2.93,2.93,0,0,0,2.134-.74,3.554,3.554,0,0,0,1.33-1.423,1.892,1.892,0,0,0,.237-1.136,1.873,1.873,0,0,0-.23-1.121,3,3,0,0,0-1.445-1.38A3.218,3.218,0,0,0,441.231-303.771Z" transform="translate(-422.616 343.863)" fill="#004f94"/>
    </g>
    <text id="کارت" transform="translate(55.363 30.259)" fill="#3caea3" font-size="29" font-family="IRANSans-Medium, IRANSans" font-weight="500"><tspan x="-55.44" y="0">کارت</tspan></text>
    <text id="قسطی" transform="translate(145.363 30.259)" fill="#004f94" font-size="29" font-family="IRANSans-Medium, IRANSans" font-weight="500"><tspan x="-76.812" y="0">قسطی</tspan></text>
    <text id="GHESTI_CARD" data-name="GHESTI CARD" transform="translate(145.363 62.259)" fill="#004f94" font-size="21" font-family="OpenSans-Bold, Open Sans" font-weight="700" letter-spacing="0.04em"><tspan x="-144.849" y="0">GHESTI</tspan><tspan y="0" fill="#595959"> </tspan><tspan y="0" fill="#3caea3">CARD</tspan></text>
  </g>
</svg>
